<?xml version="1.0" standalone="no"?>
<!DOCTYPE svg PUBLIC "-//W3C//DTD SVG 20010904//EN"
 "http://www.w3.org/TR/2001/REC-SVG-20010904/DTD/svg10.dtd">
<svg version="1.0" xmlns="http://www.w3.org/2000/svg"
 width="128.000000pt" height="129.000000pt" viewBox="0 0 128.000000 129.000000"
 preserveAspectRatio="xMidYMid meet">
<metadata>
Created by potrace 1.10, written by Peter Selinger 2001-2011
</metadata>
<g transform="translate(0.000000,129.000000) scale(0.100000,-0.100000)"
fill="#000000" stroke="none">
<path d="M561 1236 c-48 -17 -108 -71 -132 -118 -12 -23 -24 -68 -26 -100 -4
-39 -10 -58 -19 -58 -18 0 -83 -37 -113 -63 -13 -12 -34 -44 -47 -72 -21 -43
-24 -65 -24 -161 0 -99 3 -115 26 -163 28 -56 81 -102 138 -121 32 -10 34 -14
39 -69 8 -97 49 -157 137 -202 147 -76 330 42 330 213 0 34 3 38 63 70 114 63
155 151 144 313 -5 89 -26 142 -74 186 -36 35 -94 69 -114 69 -13 0 -17 14
-21 64 -6 75 -34 130 -85 171 -66 52 -149 68 -222 41z m185 -50 c66 -43 88
-87 93 -178 3 -74 4 -78 26 -78 69 0 148 -68 171 -148 22 -76 15 -211 -14
-268 -33 -65 -106 -114 -169 -114 -9 0 -13 -19 -13 -62 -1 -100 -50 -179 -129
-210 -50 -19 -129 -11 -177 17 -67 39 -96 90 -102 179 l-4 72 -47 13 c-61 16
-104 51 -130 104 -17 36 -21 62 -21 150 0 115 12 161 53 206 26 28 92 60 125
61 20 0 22 5 22 53 0 105 43 180 125 219 56 26 139 19 191 -16z"/>
<path d="M587 1080 c-33 -26 -41 -62 -22 -106 22 -54 22 -671 0 -734 -14 -39
-14 -46 0 -67 20 -30 28 -29 13 2 -10 22 -8 30 10 55 22 29 22 36 22 376 0
331 -1 347 -20 371 -11 14 -20 31 -20 38 0 24 41 65 66 65 51 0 84 -69 49
-104 -13 -12 -15 -67 -15 -364 0 -315 2 -353 17 -381 15 -25 16 -35 6 -63
l-12 -33 19 24 c24 28 25 41 5 88 -23 54 -22 664 1 718 21 52 12 96 -25 118
-38 22 -63 22 -94 -3z"/>
</g>
</svg>
